<?xml version="1.0" encoding="utf-8"?>
<!-- Generator: Adobe Illustrator 21.0.0, SVG Export Plug-In . SVG Version: 6.00 Build 0)  -->
<svg version="1.1" id="Layer_1" xmlns="http://www.w3.org/2000/svg" xmlns:xlink="http://www.w3.org/1999/xlink" x="0px" y="0px"
	 viewBox="0 0 24.7 18.8" style="enable-background:new 0 0 24.7 18.8;" xml:space="preserve">
<style type="text/css">
	.st0{fill:#FFFFFF;}
</style>
<g>
	<g>
		<path class="st0" d="M24.7,2.2c0,0.6-0.5,1-1,1H1c-0.6,0-1-0.4-1-1V1c0-0.6,0.4-1,1-1h22.7c0.5,0,1,0.4,1,1V2.2z"/>
	</g>
	<g>
		<path class="st0" d="M24.7,10c0,0.6-0.5,1-1,1H1c-0.6,0-1-0.4-1-1V8.8c0-0.6,0.4-1,1-1h22.7c0.5,0,1,0.4,1,1V10z"/>
	</g>
	<g>
		<path class="st0" d="M24.7,17.8c0,0.6-0.5,1-1,1H1c-0.6,0-1-0.4-1-1v-1.2c0-0.6,0.4-1,1-1h22.7c0.5,0,1,0.4,1,1V17.8z"/>
	</g>
</g>
</svg>
